<svg width="512" height="512" version="1.1" viewBox="0 0 135.47 135.47" xmlns="http://www.w3.org/2000/svg">
  <g transform="translate(-97.704 -85.802)" style="display:none">
    <text x="72.964577" y="89.000755" style="fill:#000000;font-family:sans-serif;font-size:10.583px;line-height:1.25;stroke-width:.26458" xml:space="preserve"><tspan x="72.964577" y="89.000755" style="stroke-width:.26458"/></text>
    <rect x="97.704" y="85.802" width="135.47" height="135.47" style="fill:#1a1a1a;stroke-width:.19274"/>
  </g>
  <g transform="translate(-97.704 -85.802)">
    <circle cx="165.44" cy="153.53" r="67.733" style="fill:#282828;stroke-width:4.073"/>
    <g transform="scale(.95381 1.0484)" style="fill:#0abab5;stroke-width:2.801" aria-label="k">
      <path d="m201.32 180.39q0.51064 0.71491 0.20426 1.4298-0.30639 0.7149-1.4298 0.7149h-11.234q-0.91916 0-1.5319-0.40851-0.51064-0.51065-0.91916-1.4298l-12.255-22.877q-0.30638-0.71491-0.61277-0.81704-0.30639-0.10212-0.91916 0.51065l-8.4767 8.3746q-0.40851 0.40851-0.7149 0.91916-0.20426 0.51064-0.20426 1.4298v12.051q0 1.2255-0.51064 1.7362-0.51065 0.51064-1.8383 0.51064h-8.8852q-1.2256 0-1.6341-0.40851-0.40852-0.51065-0.40852-1.4298v-72.205q0-1.7362 1.5319-1.7362h10.315q1.4298 0 1.4298 1.6341v43.813q0 0.61278 0.30639 0.81703 0.30639 0.20426 0.91916-0.51064l21.243-22.673q1.4298-1.4298 2.5532-1.4298h9.2937q1.3277 0 1.5319 0.71491 0.30639 0.7149-0.61277 1.6341l-15.013 15.115q-0.40851 0.51065-0.51064 1.0213-0.10213 0.51065 0.40851 1.5319z" style="fill:#0abab5"/>
    </g>
  </g>
</svg>
